<svg width="360" height="435" viewBox="0 0 360 435" fill="none" xmlns="http://www.w3.org/2000/svg">
    <g filter="url(#filter0_d_4506_170)">
        <g clip-path="url(#clip0_4506_170)">
            <g filter="url(#filter1_d_4506_170)">
                <path d="M4 19C4 8.50659 12.5066 0 23 0H331C344.807 0 356 11.1929 356 25V385.5C356 408.42 337.42 427 314.5 427H45.5C22.5802 427 4 408.42 4 385.5V19Z"
                      fill="url(#paint0_linear_4506_170)"/>
            </g>
            <mask id="mask0_4506_170" style="mask-type:alpha" maskUnits="userSpaceOnUse" x="4" y="0" width="352"
                  height="427">
                <path d="M4.9751 17C4.9751 7.61115 12.5863 0 21.9751 0H335C346.598 0 356 9.40202 356 21V385.5C356 408.42 337.42 427 314.5 427H46.475C23.5552 427 4.9751 408.42 4.9751 385.5V17Z"
                      fill="url(#paint1_linear_4506_170)"/>
            </mask>
            <g mask="url(#mask0_4506_170)">
            </g>
            <g clip-path="url(#clip1_4506_170)">
                <path d="M264.182 6.06129C251.23 14.2355 234.739 3.23248 238.051 -11.3741L238.697 -14.223C241.346 -25.9046 255.343 -31.3573 265.42 -24.6334L267.3 -23.3789C277.378 -16.655 277.068 -2.0703 266.709 4.467L264.182 6.06129Z"
                      fill="#212057" fill-opacity="0.26"/>
                <path d="M343.498 34.3394C330.546 42.5135 314.055 31.5106 317.367 16.904L318.013 14.0551C320.662 2.37348 334.659 -3.07917 344.736 3.64464L346.616 4.89921C356.693 11.623 356.384 26.2078 346.025 32.7451L343.498 34.3394Z"
                      fill="#212057" fill-opacity="0.26"/>
                <path d="M363.975 138.969C351.022 147.143 334.531 136.14 337.844 121.533L338.49 118.684C341.139 107.003 355.135 101.55 365.212 108.274L367.093 109.528C377.17 116.252 376.86 130.837 366.501 137.374L363.975 138.969Z"
                      fill="#212057" fill-opacity="0.26"/>
                <path d="M363 72.9863C350.047 81.1605 333.556 70.1575 336.869 55.5509L337.515 52.7021C340.164 41.0205 354.16 35.5678 364.237 42.2916L366.118 43.5462C376.195 50.27 375.885 64.8547 365.526 71.3921L363 72.9863Z"
                      fill="#212057" fill-opacity="0.26"/>
                <path d="M359.099 302.039C346.147 310.214 329.656 299.211 332.968 284.604L333.614 281.755C336.263 270.073 350.26 264.621 360.337 271.345L362.217 272.599C372.295 279.323 371.985 293.908 361.626 300.445L359.099 302.039Z"
                      fill="#212057" fill-opacity="0.26"/>
                <path d="M118.213 -0.244366C124.853 13.2668 111.152 27.8037 96.6195 22.6658L93.8999 21.7043C82.3814 17.632 78.8398 3.55721 87.1223 -5.2304L88.5992 -6.79737C96.8818 -15.585 111.707 -13.482 116.97 -2.77287L118.213 -0.244366Z"
                      fill="#212057" fill-opacity="0.26"/>
                <path d="M257.676 372.484C268.685 387.153 250.969 405.95 234.838 396.715L146.785 346.303C137.375 340.916 135.48 328.517 142.867 320.679L170.827 291.014C178.215 283.176 191.161 283.85 197.583 292.407L257.676 372.484Z"
                      fill="#212057" fill-opacity="0.26"/>
                <path d="M118.213 -0.244366C124.853 13.2668 111.152 27.8037 96.6195 22.6658L93.8999 21.7043C82.3814 17.632 78.8398 3.55721 87.1223 -5.2304L88.5992 -6.79737C96.8818 -15.585 111.707 -13.482 116.97 -2.77287L118.213 -0.244366Z"
                      fill="#212057" fill-opacity="0.26"/>
                <path d="M55.5 427.778C62.2973 441.349 48.4502 456.04 33.8421 450.757L-11.8733 434.222C-23.3091 430.086 -26.7771 416.079 -18.5313 407.33L5.91234 381.396C14.1581 372.648 28.9071 374.686 34.2283 385.31L55.5 427.778Z"
                      fill="#212057" fill-opacity="0.26"/>
                <path d="M186.159 440.974C192.957 454.545 179.109 469.237 164.501 463.953L118.786 447.419C107.35 443.283 103.882 429.275 112.128 420.527L136.572 394.593C144.817 385.844 159.566 387.882 164.888 398.506L186.159 440.974Z"
                      fill="#212057" fill-opacity="0.26"/>
                <path d="M351.748 447.657C356.146 456.438 347.186 465.944 337.734 462.526L269.298 437.774C261.899 435.097 259.655 426.034 264.99 420.373L301.582 381.55C306.918 375.889 316.461 377.208 319.904 384.082L351.748 447.657Z"
                      fill="#212057" fill-opacity="0.26"/>
                <path d="M372.706 177.908C379.346 191.419 365.645 205.956 351.113 200.818L348.393 199.857C336.874 195.784 333.333 181.71 341.615 172.922L343.092 171.355C351.375 162.567 366.2 164.67 371.463 175.379L372.706 177.908Z"
                      fill="#212057" fill-opacity="0.26"/>
                <path d="M19.7311 269.341C26.3713 282.852 12.6698 297.389 -1.86247 292.251L-4.58207 291.289C-16.1006 287.217 -19.6422 273.142 -11.3596 264.355L-9.88269 262.788C-1.60012 254 13.2252 256.103 18.4884 266.812L19.7311 269.341Z"
                      fill="#212057" fill-opacity="0.26"/>
                <path d="M7.05516 187.334C13.6954 200.845 -0.00608937 215.382 -14.5384 210.244L-17.258 209.283C-28.7765 205.21 -32.3181 191.136 -24.0355 182.348L-22.5586 180.781C-14.276 171.993 0.5493 174.096 5.81248 184.805L7.05516 187.334Z"
                      fill="#212057" fill-opacity="0.26"/>
                <path d="M189.393 -14.3835C196.033 -0.872409 182.332 13.6646 167.8 8.52668L165.08 7.56517C153.561 3.4928 150.02 -10.582 158.302 -19.3696L159.779 -20.9365C168.062 -29.7242 182.887 -27.6212 188.15 -16.912L189.393 -14.3835Z"
                      fill="#212057" fill-opacity="0.26"/>
                <path d="M220.42 409.885C223.081 408.933 225.988 410.286 226.877 412.891L237.963 445.375C239.377 449.518 234.962 453.362 230.94 451.489L186.668 430.876C182.646 429.004 183.002 423.271 187.234 421.757L220.42 409.885Z"
                      fill="#F8F8F8" fill-opacity="0.26"/>
                <path d="M362.866 323.765C365.738 321.605 369.865 322.981 370.749 326.393L391.546 406.642C392.539 410.474 388.782 413.921 384.989 412.656L296.643 383.2C292.851 381.935 292.091 376.982 295.316 374.557L362.866 323.765Z"
                      fill="#F8F8F8" fill-opacity="0.26"/>
                <path d="M362.866 323.765C365.738 321.605 369.865 322.981 370.749 326.393L391.546 406.642C392.539 410.474 388.782 413.921 384.989 412.656L296.643 383.2C292.851 381.935 292.091 376.982 295.316 374.557L362.866 323.765Z"
                      fill="#F8F8F8" fill-opacity="0.26"/>
                <path d="M221.45 347.93C223.017 347.715 224.582 348.237 225.679 349.34L241.44 365.182C242.767 366.516 243.202 368.488 242.565 370.274L236.22 388.057C235.583 389.843 233.982 391.136 232.088 391.396L209.575 394.477C208.008 394.691 206.443 394.169 205.346 393.067L189.584 377.224C188.258 375.891 187.822 373.919 188.46 372.132L194.804 354.35C195.442 352.563 197.042 351.27 198.937 351.011L221.45 347.93Z"
                      fill="#F8F8F8" fill-opacity="0.26"/>
                <path d="M44.9932 -21.2286C47.8659 -23.3886 51.9924 -22.0128 52.8768 -18.6001L73.6732 61.6483C74.6663 65.4807 70.9091 68.9273 67.1166 67.6628L-21.2292 38.2065C-25.0216 36.942 -25.782 31.9891 -22.5562 29.5635L44.9932 -21.2286Z"
                      fill="#F8F8F8" fill-opacity="0.26"/>
                <path d="M360.916 123.933C363.788 121.773 367.915 123.148 368.799 126.561L389.596 206.809C390.589 210.642 386.832 214.088 383.039 212.824L294.693 183.368C290.901 182.103 290.14 177.15 293.366 174.725L360.916 123.933Z"
                      fill="#F8F8F8" fill-opacity="0.26"/>
                <path d="M87.4387 260.972C102.139 253.773 119.156 264.63 118.09 280.527L112.344 366.19C111.276 382.107 92.8848 391.138 79.2506 382.439L5.78147 335.569C-7.85281 326.87 -6.49571 306.973 8.22341 299.765L87.4387 260.972Z"
                      fill="#F8F8F8" fill-opacity="0.26"/>
            </g>
        </g>
    </g>
    <defs>
        <filter id="filter0_d_4506_170" x="0" y="0" width="360" height="435" filterUnits="userSpaceOnUse"
                color-interpolation-filters="sRGB">
            <feFlood flood-opacity="0" result="BackgroundImageFix"/>
            <feColorMatrix in="SourceAlpha" type="matrix" values="0 0 0 0 0 0 0 0 0 0 0 0 0 0 0 0 0 0 127 0"
                           result="hardAlpha"/>
            <feOffset dy="4"/>
            <feGaussianBlur stdDeviation="2"/>
            <feComposite in2="hardAlpha" operator="out"/>
            <feColorMatrix type="matrix" values="0 0 0 0 0 0 0 0 0 0 0 0 0 0 0 0 0 0 0.25 0"/>
            <feBlend mode="normal" in2="BackgroundImageFix" result="effect1_dropShadow_4506_170"/>
            <feBlend mode="normal" in="SourceGraphic" in2="effect1_dropShadow_4506_170" result="shape"/>
        </filter>
        <filter id="filter1_d_4506_170" x="0" y="0" width="360" height="435" filterUnits="userSpaceOnUse"
                color-interpolation-filters="sRGB">
            <feFlood flood-opacity="0" result="BackgroundImageFix"/>
            <feColorMatrix in="SourceAlpha" type="matrix" values="0 0 0 0 0 0 0 0 0 0 0 0 0 0 0 0 0 0 127 0"
                           result="hardAlpha"/>
            <feOffset dy="4"/>
            <feGaussianBlur stdDeviation="2"/>
            <feComposite in2="hardAlpha" operator="out"/>
            <feColorMatrix type="matrix" values="0 0 0 0 0 0 0 0 0 0 0 0 0 0 0 0 0 0 0.35 0"/>
            <feBlend mode="normal" in2="BackgroundImageFix" result="effect1_dropShadow_4506_170"/>
            <feBlend mode="normal" in="SourceGraphic" in2="effect1_dropShadow_4506_170" result="shape"/>
        </filter>
        <linearGradient id="paint0_linear_4506_170" x1="184.437" y1="23.9267" x2="278.087" y2="570.419"
                        gradientUnits="userSpaceOnUse">
            <stop stop-color="#5856D6"/>
            <stop offset="1" stop-color="#2E2D70"/>
        </linearGradient>
        <linearGradient id="paint1_linear_4506_170" x1="184.912" y1="23.9267" x2="278.807" y2="570.332"
                        gradientUnits="userSpaceOnUse">
            <stop stop-color="#5856D6"/>
            <stop offset="1" stop-color="#2E2D70"/>
        </linearGradient>
        <clipPath id="clip0_4506_170">
            <path d="M4 17C4 7.61115 11.6112 0 21 0H335C346.598 0 356 9.40202 356 21V386C356 408.644 337.644 427 315 427H45C22.3563 427 4 408.644 4 386V17Z"
                  fill="white"/>
        </clipPath>
        <clipPath id="clip1_4506_170">
            <rect width="497.337" height="573.102" fill="white" transform="translate(-67.1801 -58.4414)"/>
        </clipPath>
    </defs>
</svg>
