<svg width="360" height="435" viewBox="0 0 360 435" fill="none" xmlns="http://www.w3.org/2000/svg">
    <g filter="url(#filter0_d_4512_351)">
        <g clip-path="url(#clip0_4512_351)">
            <g filter="url(#filter1_d_4512_351)">
                <path d="M4 16C4 7.16343 11.1634 0 20 0H340C348.837 0 356 7.16344 356 16V385.5C356 408.42 337.42 427 314.5 427H45.5C22.5802 427 4 408.42 4 385.5V16Z"
                      fill="url(#paint0_linear_4512_351)"/>
            </g>
            <path d="M40.7305 305.898C43.5982 303.724 47.7404 305.117 48.6233 308.552L69.2324 388.738C70.2186 392.575 66.4774 396.007 62.6945 394.735L-24.8556 365.302C-28.6384 364.03 -29.4137 359.08 -26.2105 356.651L40.7305 305.898Z"
                  fill="#F8F8F8" fill-opacity="0.26"/>
            <path d="M26.6291 25.7195C13.7274 33.9291 -2.74549 22.8467 0.553693 8.17671L1.12802 5.62295C3.76194 -6.08891 17.6934 -11.5319 27.7386 -4.77378L29.4102 -3.64916C39.4554 3.10896 39.1752 17.7361 28.875 24.2904L26.6291 25.7195Z"
                  fill="#2EB9FF" fill-opacity="0.26"/>
            <path d="M129.135 27.6048C116.233 35.8144 99.7599 24.7319 103.059 10.062L103.633 7.5082C106.267 -4.20365 120.199 -9.64665 130.244 -2.88853L131.916 -1.76391C141.961 4.99422 141.681 19.6214 131.38 26.1756L129.135 27.6048Z"
                  fill="#2EB9FF" fill-opacity="0.26"/>
            <path d="M279.025 29.4898C266.123 37.6994 249.65 26.6169 252.949 11.947L253.524 9.39321C256.158 -2.31865 270.089 -7.76165 280.134 -1.00352L281.806 0.121102C291.851 6.87922 291.571 21.5064 281.271 28.0606L279.025 29.4898Z"
                  fill="#2EB9FF" fill-opacity="0.26"/>
            <path d="M5.16006 429.54C-7.27048 436.246 -22.0809 426.282 -20.057 412.575L-10.6873 349.115C-8.85788 336.725 5.65648 330.445 16.149 337.504L64.3286 369.918C74.8211 376.977 73.9453 392.432 62.7093 398.494L5.16006 429.54Z"
                  fill="#2EB9FF" fill-opacity="0.26"/>
            <path d="M314.611 437.081C302.18 443.787 287.37 433.823 289.393 420.115L298.763 356.656C300.593 344.266 315.107 337.986 325.6 345.045L373.779 377.459C384.272 384.518 383.396 399.973 372.16 406.035L314.611 437.081Z"
                  fill="#2EB9FF" fill-opacity="0.26"/>
            <path d="M126.039 377.697C113.609 384.403 98.7982 374.439 100.822 360.731L110.192 297.272C112.021 284.881 126.536 278.602 137.028 285.661L185.208 318.075C195.7 325.134 194.824 340.589 183.588 346.651L126.039 377.697Z"
                  fill="#2EB9FF" fill-opacity="0.26"/>
            <path d="M228.545 460.646C216.114 467.352 201.304 457.388 203.328 443.681L212.697 380.221C214.527 367.831 229.041 361.551 239.534 368.61L287.713 401.024C298.206 408.083 297.33 423.538 286.094 429.6L228.545 460.646Z"
                  fill="#2EB9FF" fill-opacity="0.26"/>
            <path d="M313.434 299.3C316.302 297.126 320.444 298.518 321.327 301.954L341.936 382.14C342.922 385.977 339.181 389.409 335.398 388.137L247.848 358.703C244.065 357.432 243.29 352.482 246.493 350.053L313.434 299.3Z"
                  fill="#F8F8F8" fill-opacity="0.26"/>
            <path d="M162.577 369.995C165.444 367.821 169.587 369.214 170.469 372.649L191.079 452.835C192.065 456.672 188.323 460.104 184.541 458.832L96.9906 429.399C93.2078 428.127 92.4324 423.177 95.6356 420.748L162.577 369.995Z"
                  fill="#F8F8F8" fill-opacity="0.26"/>
        </g>
    </g>
    <defs>
        <filter id="filter0_d_4512_351" x="0" y="0" width="360" height="435" filterUnits="userSpaceOnUse"
                color-interpolation-filters="sRGB">
            <feFlood flood-opacity="0" result="BackgroundImageFix"/>
            <feColorMatrix in="SourceAlpha" type="matrix" values="0 0 0 0 0 0 0 0 0 0 0 0 0 0 0 0 0 0 127 0"
                           result="hardAlpha"/>
            <feOffset dy="4"/>
            <feGaussianBlur stdDeviation="2"/>
            <feComposite in2="hardAlpha" operator="out"/>
            <feColorMatrix type="matrix" values="0 0 0 0 0 0 0 0 0 0 0 0 0 0 0 0 0 0 0.25 0"/>
            <feBlend mode="normal" in2="BackgroundImageFix" result="effect1_dropShadow_4512_351"/>
            <feBlend mode="normal" in="SourceGraphic" in2="effect1_dropShadow_4512_351" result="shape"/>
        </filter>
        <filter id="filter1_d_4512_351" x="0" y="0" width="360" height="435" filterUnits="userSpaceOnUse"
                color-interpolation-filters="sRGB">
            <feFlood flood-opacity="0" result="BackgroundImageFix"/>
            <feColorMatrix in="SourceAlpha" type="matrix" values="0 0 0 0 0 0 0 0 0 0 0 0 0 0 0 0 0 0 127 0"
                           result="hardAlpha"/>
            <feOffset dy="4"/>
            <feGaussianBlur stdDeviation="2"/>
            <feComposite in2="hardAlpha" operator="out"/>
            <feColorMatrix type="matrix" values="0 0 0 0 0 0 0 0 0 0 0 0 0 0 0 0 0 0 0.35 0"/>
            <feBlend mode="normal" in2="BackgroundImageFix" result="effect1_dropShadow_4512_351"/>
            <feBlend mode="normal" in="SourceGraphic" in2="effect1_dropShadow_4512_351" result="shape"/>
        </filter>
        <linearGradient id="paint0_linear_4512_351" x1="173.098" y1="-80.9828" x2="275.495" y2="1136.81"
                        gradientUnits="userSpaceOnUse">
            <stop stop-color="#EDF6FF"/>
            <stop offset="1" stop-color="#0095FF"/>
        </linearGradient>
        <clipPath id="clip0_4512_351">
            <path d="M4 17C4 7.61115 11.6112 0 21 0H335C346.598 0 356 9.40202 356 21V386C356 408.644 337.644 427 315 427H45C22.3563 427 4 408.644 4 386V17Z"
                  fill="white"/>
        </clipPath>
    </defs>
</svg>
