<svg width="360" height="435" viewBox="0 0 360 435" fill="none" xmlns="http://www.w3.org/2000/svg">
    <g filter="url(#filter0_d_4512_331)">
        <g clip-path="url(#clip0_4512_331)">
            <g filter="url(#filter1_d_4512_331)">
                <path d="M4 17C4 7.61115 11.6112 0 21 0H339C348.389 0 356 7.61116 356 17V385.5C356 408.42 337.42 427 314.5 427H45.5C22.5802 427 4 408.42 4 385.5V17Z"
                      fill="url(#paint0_linear_4512_331)"/>
            </g>
            <path d="M387.714 404.52C394.266 418.033 380.669 432.524 366.204 427.443L293.246 401.818C281.71 397.766 278.136 383.625 286.417 374.8L326.329 332.267C334.611 323.441 349.443 325.584 354.668 336.361L387.714 404.52Z"
                  fill="#DA191C" fill-opacity="0.26"/>
            <path d="M96.1688 441.445C102.72 454.958 89.1228 469.448 74.6583 464.368L1.69991 438.743C-9.83595 434.691 -13.4098 420.55 -5.12834 411.725L34.7837 369.191C43.0651 360.366 57.8973 362.509 63.1224 373.286L96.1688 441.445Z"
                  fill="#DA191C" fill-opacity="0.26"/>
            <path d="M321.103 259.714C336.403 261.332 342.174 280.578 330.16 289.919L269.749 336.888C260.291 344.242 246.206 339.678 242.746 328.139L226.221 273.03C222.761 261.491 232.123 250.299 244.167 251.573L321.103 259.714Z"
                  fill="#DA191C" fill-opacity="0.26"/>
            <path d="M239.504 369.489C246.056 383.002 232.458 397.493 217.993 392.412L145.035 366.787C133.499 362.735 129.925 348.594 138.207 339.769L178.119 297.236C186.4 288.41 201.232 290.553 206.458 301.33L239.504 369.489Z"
                  fill="#DA191C" fill-opacity="0.26"/>
            <path d="M407.216 293.746C413.768 307.259 400.17 321.75 385.705 316.67L312.747 291.044C301.211 286.992 297.637 272.852 305.919 264.026L345.831 221.493C354.112 212.667 368.944 214.81 374.17 225.587L407.216 293.746Z"
                  fill="#DA191C" fill-opacity="0.26"/>
            <path d="M70.817 75.0389C77.3687 88.5519 63.771 103.043 49.3065 97.9623L-23.6519 72.337C-35.1877 68.2852 -38.7616 54.1442 -30.4801 45.3189L9.43187 2.78538C17.7133 -6.03999 32.5455 -3.89685 37.7706 6.88013L70.817 75.0389Z"
                  fill="#DA191C" fill-opacity="0.26"/>
            <path d="M289.232 67.4647C295.784 80.9777 282.187 95.4684 267.722 90.388L194.764 64.7627C183.228 60.711 179.654 46.57 187.935 37.7447L227.847 -4.78885C236.129 -13.6142 250.961 -11.4711 256.186 -0.694101L289.232 67.4647Z"
                  fill="#DA191C" fill-opacity="0.26"/>
            <path d="M410.102 334.518C412.935 332.492 416.903 333.82 417.848 337.112L442.572 423.256C443.681 427.12 439.905 430.676 436.06 429.388L337.177 396.272C333.332 394.985 332.617 389.925 335.943 387.546L410.102 334.518Z"
                  fill="#F8F8F8" fill-opacity="0.26"/>
            <path d="M282.368 413.101C285.201 411.075 289.169 412.404 290.114 415.695L314.838 501.84C315.947 505.703 312.171 509.259 308.326 507.972L209.443 474.856C205.598 473.568 204.883 468.508 208.209 466.129L282.368 413.101Z"
                  fill="#F8F8F8" fill-opacity="0.26"/>
            <path d="M75.8829 371.94C78.7163 369.914 82.6844 371.243 83.629 374.534L89.4078 394.669C90.5167 398.533 86.7404 402.089 82.8959 400.801L59.7837 393.061C55.9392 391.773 55.2235 386.713 58.5495 384.335L75.8829 371.94Z"
                  fill="#F8F8F8" fill-opacity="0.26"/>
            <path d="M17.0415 314.868C19.9115 312.7 24.0464 314.085 24.93 317.51L32.0008 344.915C32.9902 348.75 29.2416 352.189 25.4543 350.92L-4.58337 340.861C-8.37066 339.592 -9.1391 334.641 -5.92535 332.214L17.0415 314.868Z"
                  fill="#F8F8F8" fill-opacity="0.26"/>
            <path d="M9.24096 188.945C12.111 186.778 16.2459 188.163 17.1295 191.587L24.2003 218.993C25.1897 222.828 21.441 226.266 17.6537 224.998L-12.3839 214.938C-16.1712 213.67 -16.9396 208.719 -13.7259 206.291L9.24096 188.945Z"
                  fill="#F8F8F8" fill-opacity="0.26"/>
            <path d="M309.562 -19.3473C312.432 -21.5149 316.567 -20.1301 317.451 -16.7054L324.522 10.7001C325.511 14.5349 321.762 17.9736 317.975 16.7052L287.937 6.64566C284.15 5.3773 283.382 0.425873 286.595 -2.00134L309.562 -19.3473Z"
                  fill="#F8F8F8" fill-opacity="0.26"/>
            <path d="M111.623 -15.5602C114.493 -17.7278 118.628 -16.343 119.512 -12.9183L126.583 14.4872C127.572 18.322 123.823 21.7607 120.036 20.4924L89.9984 10.4328C86.2111 9.16441 85.4426 4.21298 88.6564 1.78577L111.623 -15.5602Z"
                  fill="#F8F8F8" fill-opacity="0.26"/>
            <path d="M17.0415 314.868C19.9115 312.7 24.0464 314.085 24.93 317.51L32.0008 344.915C32.9902 348.75 29.2416 352.189 25.4543 350.92L-4.58337 340.861C-8.37066 339.592 -9.1391 334.641 -5.92535 332.214L17.0415 314.868Z"
                  fill="#F8F8F8" fill-opacity="0.26"/>
        </g>
    </g>
    <defs>
        <filter id="filter0_d_4512_331" x="0" y="0" width="360" height="435" filterUnits="userSpaceOnUse"
                color-interpolation-filters="sRGB">
            <feFlood flood-opacity="0" result="BackgroundImageFix"/>
            <feColorMatrix in="SourceAlpha" type="matrix" values="0 0 0 0 0 0 0 0 0 0 0 0 0 0 0 0 0 0 127 0"
                           result="hardAlpha"/>
            <feOffset dy="4"/>
            <feGaussianBlur stdDeviation="2"/>
            <feComposite in2="hardAlpha" operator="out"/>
            <feColorMatrix type="matrix" values="0 0 0 0 0 0 0 0 0 0 0 0 0 0 0 0 0 0 0.25 0"/>
            <feBlend mode="normal" in2="BackgroundImageFix" result="effect1_dropShadow_4512_331"/>
            <feBlend mode="normal" in="SourceGraphic" in2="effect1_dropShadow_4512_331" result="shape"/>
        </filter>
        <filter id="filter1_d_4512_331" x="0" y="0" width="360" height="435" filterUnits="userSpaceOnUse"
                color-interpolation-filters="sRGB">
            <feFlood flood-opacity="0" result="BackgroundImageFix"/>
            <feColorMatrix in="SourceAlpha" type="matrix" values="0 0 0 0 0 0 0 0 0 0 0 0 0 0 0 0 0 0 127 0"
                           result="hardAlpha"/>
            <feOffset dy="4"/>
            <feGaussianBlur stdDeviation="2"/>
            <feComposite in2="hardAlpha" operator="out"/>
            <feColorMatrix type="matrix" values="0 0 0 0 0 0 0 0 0 0 0 0 0 0 0 0 0 0 0.35 0"/>
            <feBlend mode="normal" in2="BackgroundImageFix" result="effect1_dropShadow_4512_331"/>
            <feBlend mode="normal" in="SourceGraphic" in2="effect1_dropShadow_4512_331" result="shape"/>
        </filter>
        <linearGradient id="paint0_linear_4512_331" x1="172.285" y1="-523.572" x2="458.088" y2="1376.39"
                        gradientUnits="userSpaceOnUse">
            <stop stop-color="#EDF6FF"/>
            <stop offset="1" stop-color="#E65C7A"/>
        </linearGradient>
        <clipPath id="clip0_4512_331">
            <path d="M4 17C4 7.61115 11.6112 0 21 0H335C346.598 0 356 9.40202 356 21V386C356 408.644 337.644 427 315 427H45C22.3563 427 4 408.644 4 386V17Z"
                  fill="white"/>
        </clipPath>
    </defs>
</svg>
