<svg width="360" height="435" viewBox="0 0 360 435" fill="none" xmlns="http://www.w3.org/2000/svg">
    <g clip-path="url(#clip0_4512_331)">
        <g filter="url(#filter0_d_4512_331)">
            <path d="M0 17C0 7.61115 7.61116 0 17 0H343C352.389 0 360 7.61116 360 17V393.5C360 416.42 341.42 435 318.5 435H41.5C18.5802 435 0 416.42 0 393.5V17Z"
                  fill="url(#paint0_linear_4512_331)"/>
        </g>
        <path d="M392.802 412.852C399.366 426.338 385.738 440.805 371.246 435.735L295.309 409.168C283.753 405.125 280.177 391.014 288.475 382.205L330.016 338.108C338.314 329.3 353.173 331.435 358.407 342.188L392.802 412.852Z"
              fill="#DA191C" fill-opacity="0.26"/>
        <path d="M94.6303 450.469C101.195 463.955 87.5661 478.422 73.074 473.351L-2.86299 446.784C-14.4184 442.741 -17.995 428.63 -9.697 419.822L31.8445 375.725C40.1425 366.916 55.0009 369.051 60.2348 379.804L94.6303 450.469Z"
              fill="#DA191C" fill-opacity="0.26"/>
        <path d="M325.098 264.662C340.428 266.278 346.229 285.549 334.191 294.872L271.33 343.555C261.872 350.88 247.789 346.303 244.319 334.776L227.124 277.656C223.655 266.129 232.996 254.955 245.041 256.225L325.098 264.662Z"
              fill="#DA191C" fill-opacity="0.26"/>
        <path d="M241.223 377.165C247.787 390.651 234.159 405.118 219.667 400.048L143.73 373.48C132.174 369.438 128.598 355.327 136.896 346.518L178.437 302.421C186.735 293.612 201.594 295.748 206.828 306.501L241.223 377.165Z"
              fill="#DA191C" fill-opacity="0.26"/>
        <path d="M412.747 300.003C419.311 313.489 405.682 327.956 391.19 322.886L315.253 296.318C303.698 292.276 300.121 278.165 308.419 269.356L349.961 225.259C358.259 216.45 373.117 218.586 378.351 229.339L412.747 300.003Z"
              fill="#DA191C" fill-opacity="0.26"/>
        <path d="M68.7024 77.1984C75.2665 90.6843 61.6382 105.151 47.1461 100.081L-28.791 73.5135C-40.3463 69.4708 -43.923 55.3598 -35.625 46.5513L5.91654 2.45407C14.2145 -6.35444 29.0729 -4.21929 34.3069 6.53378L68.7024 77.1984Z"
              fill="#DA191C" fill-opacity="0.26"/>
        <path d="M292.082 69.4823C298.646 82.9682 285.018 97.4351 270.526 92.3648L194.589 65.7975C183.033 61.7547 179.457 47.6438 187.755 38.8352L229.296 -5.262C237.594 -14.0705 252.452 -11.9354 257.686 -1.18229L292.082 69.4823Z"
              fill="#DA191C" fill-opacity="0.26"/>
        <path d="M418.917 336.823C420.409 336.652 421.89 337.146 422.956 338.171L468.942 382.366C470.327 383.698 470.796 385.712 470.146 387.536L452.305 437.567C451.654 439.391 450.001 440.697 448.062 440.919L383.685 448.299C382.192 448.47 380.711 447.976 379.645 446.951L333.659 402.756C332.274 401.424 331.805 399.41 332.455 397.586L350.296 347.555C350.947 345.731 352.6 344.425 354.539 344.202L418.917 336.823Z"
              fill="#F8F8F8" fill-opacity="0.26"/>
        <path d="M288.279 416.878C289.772 416.707 291.253 417.201 292.319 418.226L338.305 462.422C339.69 463.753 340.159 465.767 339.509 467.591L321.668 517.622C321.017 519.446 319.364 520.753 317.425 520.975L253.047 528.354C251.555 528.525 250.074 528.031 249.008 527.007L203.022 482.811C201.637 481.48 201.168 479.466 201.818 477.641L219.659 427.61C220.31 425.786 221.963 424.48 223.902 424.258L288.279 416.878Z"
              fill="#F8F8F8" fill-opacity="0.26"/>
        <path d="M77.1016 374.947C78.594 374.776 80.0751 375.27 81.1412 376.294L94.8375 389.457C96.2228 390.789 96.6918 392.803 96.0413 394.627L91.1142 408.444C90.4636 410.268 88.8107 411.574 86.8714 411.797L67.6973 413.994C66.2049 414.166 64.7238 413.671 63.6578 412.647L49.9614 399.484C48.5761 398.152 48.1072 396.138 48.7577 394.314L53.6848 380.497C54.3353 378.673 55.9883 377.367 57.9276 377.145L77.1016 374.947Z"
              fill="#F8F8F8" fill-opacity="0.26"/>
        <path d="M17.0185 316.467C18.5854 316.252 20.1516 316.775 21.2485 317.878L37.4571 334.179C38.7832 335.512 39.2189 337.484 38.5819 339.271L32.0445 357.603C31.4075 359.389 29.8076 360.682 27.9133 360.942L4.76161 364.112C3.1947 364.326 1.62853 363.804 0.531536 362.701L-15.677 346.4C-17.0032 345.067 -17.4388 343.095 -16.8018 341.308L-10.2644 322.976C-9.62745 321.19 -8.02751 319.897 -6.13323 319.637L17.0185 316.467Z"
              fill="#F8F8F8" fill-opacity="0.26"/>
        <path d="M9.04063 188.185C10.6075 187.971 12.1737 188.493 13.2707 189.596L29.4792 205.897C30.8054 207.23 31.241 209.203 30.604 210.989L24.0667 229.321C23.4297 231.108 21.8298 232.401 19.9355 232.66L-3.21624 235.83C-4.78315 236.045 -6.34932 235.522 -7.44631 234.419L-23.6548 218.119C-24.981 216.785 -25.4166 214.813 -24.7796 213.027L-18.2423 194.694C-17.6053 192.908 -16.0054 191.615 -14.1111 191.355L9.04063 188.185Z"
              fill="#F8F8F8" fill-opacity="0.26"/>
        <path d="M316.187 -24.0098C317.754 -24.2244 319.321 -23.7019 320.417 -22.5987L336.626 -6.29828C337.952 -4.96458 338.388 -2.99253 337.751 -1.20625L331.213 17.1262C330.576 18.9125 328.977 20.2055 327.082 20.4649L303.931 23.6351C302.364 23.8496 300.797 23.3271 299.7 22.2239L283.492 5.92351C282.166 4.58981 281.73 2.61776 282.367 0.831474L288.905 -17.501C289.541 -19.2873 291.141 -20.5803 293.036 -20.8397L316.187 -24.0098Z"
              fill="#F8F8F8" fill-opacity="0.26"/>
        <path d="M113.75 -20.1517C115.317 -20.3662 116.883 -19.8438 117.98 -18.7406L134.188 -2.44013C135.515 -1.10643 135.95 0.865625 135.313 2.65191L128.776 20.9844C128.139 22.7706 126.539 24.0637 124.645 24.323L101.493 27.4932C99.926 27.7078 98.3598 27.1853 97.2628 26.0821L81.0543 9.78167C79.7281 8.44796 79.2925 6.47591 79.9295 4.68963L86.4669 -13.6428C87.1038 -15.4291 88.7038 -16.7221 90.5981 -16.9815L113.75 -20.1517Z"
              fill="#F8F8F8" fill-opacity="0.26"/>
        <path d="M17.0185 316.467C18.5854 316.252 20.1516 316.775 21.2485 317.878L37.4571 334.179C38.7832 335.512 39.2189 337.484 38.5819 339.271L32.0445 357.603C31.4075 359.389 29.8076 360.682 27.9133 360.942L4.76161 364.112C3.1947 364.326 1.62853 363.804 0.531536 362.701L-15.677 346.4C-17.0032 345.067 -17.4388 343.095 -16.8018 341.308L-10.2644 322.976C-9.62745 321.19 -8.02751 319.897 -6.13323 319.637L17.0185 316.467Z"
              fill="#F8F8F8" fill-opacity="0.26"/>
    </g>
    <defs>
        <filter id="filter0_d_4512_331" x="-4" y="0" width="368" height="443" filterUnits="userSpaceOnUse"
                color-interpolation-filters="sRGB">
            <feFlood flood-opacity="0" result="BackgroundImageFix"/>
            <feColorMatrix in="SourceAlpha" type="matrix" values="0 0 0 0 0 0 0 0 0 0 0 0 0 0 0 0 0 0 127 0"
                           result="hardAlpha"/>
            <feOffset dy="4"/>
            <feGaussianBlur stdDeviation="2"/>
            <feComposite in2="hardAlpha" operator="out"/>
            <feColorMatrix type="matrix" values="0 0 0 0 0 0 0 0 0 0 0 0 0 0 0 0 0 0 0.35 0"/>
            <feBlend mode="normal" in2="BackgroundImageFix" result="effect1_dropShadow_4512_331"/>
            <feBlend mode="normal" in="SourceGraphic" in2="effect1_dropShadow_4512_331" result="shape"/>
        </filter>
        <linearGradient id="paint0_linear_4512_331" x1="172.11" y1="-533.381" x2="462.181" y2="1402.51"
                        gradientUnits="userSpaceOnUse">
            <stop stop-color="#EDF6FF"/>
            <stop offset="1" stop-color="#E65C7A"/>
        </linearGradient>
        <clipPath id="clip0_4512_331">
            <path d="M0 17C0 7.61115 7.61116 0 17 0H339C350.598 0 360 9.40202 360 21V394C360 416.644 341.644 435 319 435H41C18.3563 435 0 416.644 0 394V17Z"
                  fill="white"/>
        </clipPath>
    </defs>
</svg>
