<svg width="368" height="443" viewBox="0 0 368 443" fill="none" xmlns="http://www.w3.org/2000/svg">
    <g filter="url(#filter0_d_4506_170)">
        <g clip-path="url(#clip0_4506_170)">
            <g filter="url(#filter1_d_4506_170)">
                <path d="M4 19C4 8.50659 12.5066 0 23 0H339C352.807 0 364 11.1929 364 25V393.5C364 416.42 345.42 435 322.5 435H45.5C22.5802 435 4 416.42 4 393.5V19Z"
                      fill="url(#paint0_linear_4506_170)"/>
            </g>
            <mask id="mask0_4506_170" style="mask-type:alpha" maskUnits="userSpaceOnUse" x="4" y="0" width="360"
                  height="435">
                <path d="M4.99719 17C4.99719 7.61115 12.6084 0 21.9972 0H343C354.598 0 364 9.40202 364 21V393.5C364 416.42 345.42 435 322.5 435H46.4972C23.5774 435 4.99719 416.42 4.99719 393.5V17Z"
                      fill="url(#paint1_linear_4506_170)"/>
            </mask>
            <g mask="url(#mask0_4506_170)">
            </g>
            <g clip-path="url(#clip1_4506_170)">
                <path d="M269.333 6.65436C256.356 14.8117 239.857 3.84623 243.176 -10.7303L244.142 -14.9735C246.798 -26.6407 260.825 -32.0978 270.917 -25.3902L273.729 -23.5217C283.821 -16.8141 283.497 -2.24945 273.11 4.2798L269.333 6.65436Z"
                      fill="#212057" fill-opacity="0.26"/>
                <path d="M350.451 35.4622C337.475 43.6196 320.976 32.6541 324.294 18.0775L325.26 13.8344C327.916 2.16713 341.943 -3.28998 352.036 3.41762L354.847 5.28618C364.94 11.9938 364.616 26.5584 354.229 33.0877L350.451 35.4622Z"
                      fill="#212057" fill-opacity="0.26"/>
                <path d="M371.393 142.052C358.416 150.209 341.918 139.244 345.236 124.667L346.202 120.424C348.858 108.757 362.885 103.3 372.978 110.007L375.789 111.876C385.881 118.583 385.557 133.148 375.171 139.677L371.393 142.052Z"
                      fill="#212057" fill-opacity="0.26"/>
                <path d="M370.396 74.8331C357.419 82.9905 340.92 72.025 344.239 57.4484L345.205 53.2052C347.861 41.538 361.888 36.0809 371.98 42.7885L374.792 44.6571C384.884 51.3647 384.56 65.9293 374.174 72.4585L370.396 74.8331Z"
                      fill="#212057" fill-opacity="0.26"/>
                <path d="M366.407 308.178C353.43 316.335 336.931 305.369 340.25 290.793L341.216 286.55C343.872 274.882 357.899 269.425 367.991 276.133L370.803 278.002C380.895 284.709 380.571 299.274 370.185 305.803L366.407 308.178Z"
                      fill="#212057" fill-opacity="0.26"/>
                <path d="M121.183 0.509885C127.836 13.9938 114.104 28.5066 99.5439 23.3791L95.4339 21.9317C83.8961 17.8684 80.3517 3.82365 88.6508 -4.94711L90.8828 -7.30595C99.1819 -16.0767 114.033 -13.9816 119.305 -3.29635L121.183 0.509885Z"
                      fill="#212057" fill-opacity="0.26"/>
                <path d="M264.455 380.807C275.483 395.446 257.729 414.21 241.569 404.994L149.646 352.572C140.22 347.197 138.324 334.824 145.727 327L174.915 296.152C182.318 288.329 195.288 288.999 201.72 297.537L264.455 380.807Z"
                      fill="#212057" fill-opacity="0.26"/>
                <path d="M121.183 0.509885C127.836 13.9938 114.104 28.5066 99.5439 23.3791L95.4339 21.9317C83.8961 17.8684 80.3517 3.82365 88.6508 -4.94711L90.8828 -7.30595C99.1819 -16.0767 114.033 -13.9816 119.305 -3.29635L121.183 0.509885Z"
                      fill="#212057" fill-opacity="0.26"/>
                <path d="M57.0589 436.565C63.869 450.108 49.9908 464.775 35.355 459.503L-12.7378 442.176C-24.1928 438.049 -27.6634 424.072 -19.4012 415.34L6.31366 388.164C14.5759 379.432 29.3508 381.462 34.6809 392.062L57.0589 436.565Z"
                      fill="#212057" fill-opacity="0.26"/>
                <path d="M190.688 450.009C197.498 463.552 183.62 478.219 168.984 472.946L120.891 455.62C109.436 451.493 105.965 437.515 114.228 428.784L139.943 401.607C148.205 392.875 162.98 394.906 168.31 405.506L190.688 450.009Z"
                      fill="#212057" fill-opacity="0.26"/>
                <path d="M359.902 456.544C364.309 465.307 355.329 474.797 345.859 471.386L275.002 445.858C267.59 443.188 265.344 434.143 270.69 428.493L308.577 388.453C313.923 382.803 323.483 384.117 326.932 390.976L359.902 456.544Z"
                      fill="#212057" fill-opacity="0.26"/>
                <path d="M381.46 182C388.113 195.484 374.381 209.997 359.821 204.869L355.711 203.422C344.173 199.358 340.629 185.314 348.928 176.543L351.16 174.184C359.459 165.413 374.31 167.508 379.582 178.194L381.46 182Z"
                      fill="#212057" fill-opacity="0.26"/>
                <path d="M20.463 275.146C27.1159 288.63 13.3835 303.142 -1.17632 298.015L-5.28626 296.567C-16.8241 292.504 -20.3685 278.459 -12.0694 269.689L-9.8374 267.33C-1.53832 258.559 13.313 260.654 18.585 271.339L20.463 275.146Z"
                      fill="#212057" fill-opacity="0.26"/>
                <path d="M7.49901 191.603C14.1519 205.087 0.419511 219.599 -14.1403 214.472L-18.2503 213.024C-29.7881 208.961 -33.3325 194.916 -25.0334 186.146L-22.8014 183.787C-14.5023 175.016 0.349011 177.111 5.62104 187.796L7.49901 191.603Z"
                      fill="#212057" fill-opacity="0.26"/>
                <path d="M193.981 -13.8942C200.634 -0.410281 186.901 14.1026 172.342 8.97504L168.232 7.52764C156.694 3.46435 153.149 -10.5804 161.449 -19.3512L163.681 -21.71C171.98 -30.4808 186.831 -28.3857 192.103 -17.7004L193.981 -13.8942Z"
                      fill="#212057" fill-opacity="0.26"/>
                <path d="M225.451 417.524C228.113 416.575 231.015 417.921 231.905 420.517L243.354 453.932C244.771 458.069 240.346 461.918 236.318 460.05L190.6 438.847C186.572 436.979 186.938 431.248 191.181 429.736L225.451 417.524Z"
                      fill="#F8F8F8" fill-opacity="0.26"/>
                <path d="M371.162 329.725C374.037 327.572 378.156 328.94 379.041 332.342L400.397 414.426C401.393 418.256 397.628 421.709 393.831 420.448L303.111 390.318C299.314 389.057 298.561 384.103 301.798 381.679L371.162 329.725Z"
                      fill="#F8F8F8" fill-opacity="0.26"/>
                <path d="M371.162 329.725C374.037 327.572 378.156 328.94 379.041 332.342L400.397 414.426C401.393 418.256 397.628 421.709 393.831 420.448L303.111 390.318C299.314 389.057 298.561 384.103 301.798 381.679L371.162 329.725Z"
                      fill="#F8F8F8" fill-opacity="0.26"/>
                <path d="M226.454 354.44C228.018 354.227 229.579 354.745 230.674 355.841L246.881 372.068C248.21 373.399 248.646 375.372 248.006 377.159L241.48 395.379C240.839 397.167 239.233 398.461 237.334 398.72L214.185 401.876C212.621 402.089 211.06 401.57 209.965 400.474L193.758 384.248C192.429 382.916 191.993 380.944 192.633 379.156L199.159 360.937C199.8 359.149 201.406 357.854 203.305 357.596L226.454 354.44Z"
                      fill="#F8F8F8" fill-opacity="0.26"/>
                <path d="M46.0654 -21.7316C48.9403 -23.8849 53.0594 -22.5169 53.9445 -19.1148L75.2997 62.9685C76.2962 66.7986 72.5313 70.2522 68.7343 68.9912L-21.9856 38.8613C-25.7826 37.6003 -26.5359 32.646 -23.2993 30.2219L46.0654 -21.7316Z"
                      fill="#F8F8F8" fill-opacity="0.26"/>
                <path d="M369.168 126.149C372.043 123.996 376.162 125.364 377.047 128.766L398.402 210.849C399.399 214.679 395.634 218.133 391.837 216.872L301.117 186.742C297.32 185.481 296.567 180.527 299.803 178.103L369.168 126.149Z"
                      fill="#F8F8F8" fill-opacity="0.26"/>
                <path d="M90.0616 265.507C104.784 258.326 121.804 269.141 120.736 285L114.759 373.753C113.688 389.65 95.255 398.688 81.6 390.011L5.1828 341.449C-8.47211 332.772 -7.09079 312.898 7.66758 305.699L90.0616 265.507Z"
                      fill="#F8F8F8" fill-opacity="0.26"/>
            </g>
        </g>
    </g>
    <defs>
        <filter id="filter0_d_4506_170" x="0" y="0" width="368" height="443" filterUnits="userSpaceOnUse"
                color-interpolation-filters="sRGB">
            <feFlood flood-opacity="0" result="BackgroundImageFix"/>
            <feColorMatrix in="SourceAlpha" type="matrix" values="0 0 0 0 0 0 0 0 0 0 0 0 0 0 0 0 0 0 127 0"
                           result="hardAlpha"/>
            <feOffset dy="4"/>
            <feGaussianBlur stdDeviation="2"/>
            <feComposite in2="hardAlpha" operator="out"/>
            <feColorMatrix type="matrix" values="0 0 0 0 0 0 0 0 0 0 0 0 0 0 0 0 0 0 0.25 0"/>
            <feBlend mode="normal" in2="BackgroundImageFix" result="effect1_dropShadow_4506_170"/>
            <feBlend mode="normal" in="SourceGraphic" in2="effect1_dropShadow_4506_170" result="shape"/>
        </filter>
        <filter id="filter1_d_4506_170" x="0" y="0" width="368" height="443" filterUnits="userSpaceOnUse"
                color-interpolation-filters="sRGB">
            <feFlood flood-opacity="0" result="BackgroundImageFix"/>
            <feColorMatrix in="SourceAlpha" type="matrix" values="0 0 0 0 0 0 0 0 0 0 0 0 0 0 0 0 0 0 127 0"
                           result="hardAlpha"/>
            <feOffset dy="4"/>
            <feGaussianBlur stdDeviation="2"/>
            <feComposite in2="hardAlpha" operator="out"/>
            <feColorMatrix type="matrix" values="0 0 0 0 0 0 0 0 0 0 0 0 0 0 0 0 0 0 0.35 0"/>
            <feBlend mode="normal" in2="BackgroundImageFix" result="effect1_dropShadow_4506_170"/>
            <feBlend mode="normal" in="SourceGraphic" in2="effect1_dropShadow_4506_170" result="shape"/>
        </filter>
        <linearGradient id="paint0_linear_4506_170" x1="188.538" y1="24.375" x2="283.591" y2="581.23"
                        gradientUnits="userSpaceOnUse">
            <stop stop-color="#5856D6"/>
            <stop offset="1" stop-color="#2E2D70"/>
        </linearGradient>
        <linearGradient id="paint1_linear_4506_170" x1="189.024" y1="24.375" x2="284.326" y2="581.142"
                        gradientUnits="userSpaceOnUse">
            <stop stop-color="#5856D6"/>
            <stop offset="1" stop-color="#2E2D70"/>
        </linearGradient>
        <clipPath id="clip0_4506_170">
            <path d="M4 17C4 7.61115 11.6112 0 21 0H332C349.673 0 364 14.3269 364 32V394C364 416.644 345.644 435 323 435H45C22.3563 435 4 416.644 4 394V17Z"
                  fill="white"/>
        </clipPath>
        <clipPath id="clip1_4506_170">
            <rect width="508.64" height="583.839" fill="white" transform="translate(-68.7977 -59.5364)"/>
        </clipPath>
    </defs>
</svg>
