<svg width="7" height="12" viewBox="0 0 7 12" fill="none" xmlns="http://www.w3.org/2000/svg">
<path d="M5.05382 11.6799C4.92448 11.6803 4.79669 11.6528 4.67983 11.5994C4.56297 11.546 4.46002 11.468 4.37853 11.3712L0.196948 6.36602C0.0696119 6.21676 0 6.02953 0 5.8363C0 5.64308 0.0696119 5.45585 0.196948 5.30658L4.52571 0.301358C4.67266 0.131 4.88383 0.0238676 5.11276 0.00352994C5.34168 -0.0168077 5.56962 0.051315 5.74642 0.192912C5.92322 0.334508 6.0344 0.53798 6.05551 0.758566C6.07662 0.979151 6.00592 1.19878 5.85897 1.36914L1.98906 5.84047L5.7291 10.3118C5.83497 10.4343 5.90222 10.5834 5.92289 10.7415C5.94357 10.8996 5.9168 11.0601 5.84576 11.2041C5.77472 11.348 5.66238 11.4693 5.52203 11.5536C5.38169 11.6379 5.21921 11.6818 5.05382 11.6799Z" fill="white"/>
</svg>
