<svg width="36" height="38" viewBox="0 0 36 38" fill="none" xmlns="http://www.w3.org/2000/svg">
<path opacity="0.8" d="M12.5863 3.45455C9.09022 3.45455 7.84558 3.70825 6.56617 4.4305C5.53651 5.01176 4.74798 5.84409 4.19731 6.93096C3.51308 8.28144 3.27273 9.59523 3.27273 13.2856V24.7144C3.27273 28.4048 3.51308 29.7186 4.19731 31.069C4.74798 32.1559 5.53651 32.9882 6.56617 33.5695C7.84558 34.2917 9.09022 34.5455 12.5863 34.5455H23.4137C26.9098 34.5455 28.1544 34.2917 29.4338 33.5695C30.4635 32.9882 31.252 32.1559 31.8027 31.069C32.4869 29.7186 32.7273 28.4048 32.7273 24.7144V13.2856C32.7273 9.59523 32.4869 8.28144 31.8027 6.93096C31.252 5.84409 30.4635 5.01176 29.4338 4.4305C28.1544 3.70825 26.9098 3.45455 23.4137 3.45455H12.5863ZM12.5863 0H23.4137C27.7902 0 29.3772 0.481005 30.9772 1.38423C32.5772 2.28746 33.8329 3.61291 34.6886 5.3018C35.5443 6.99069 36 8.6659 36 13.2856V24.7144C36 29.3341 35.5443 31.0093 34.6886 32.6982C33.8329 34.3871 32.5772 35.7125 30.9772 36.6158C29.3772 37.519 27.7902 38 23.4137 38H12.5863C8.2098 38 6.62276 37.519 5.02276 36.6158C3.42276 35.7125 2.16707 34.3871 1.31138 32.6982C0.455689 31.0093 0 29.3341 0 24.7144V13.2856C0 8.6659 0.455689 6.99069 1.31138 5.3018C2.16707 3.61291 3.42276 2.28746 5.02276 1.38423C6.62276 0.481005 8.2098 0 12.5863 0ZM13.0909 27.6364C13.0909 28.5903 12.3583 29.3636 11.4545 29.3636C10.5508 29.3636 9.81818 28.5903 9.81818 27.6364V17.2727C9.81818 16.3188 10.5508 15.5455 11.4545 15.5455C12.3583 15.5455 13.0909 16.3188 13.0909 17.2727V27.6364ZM19.6364 27.6364C19.6364 28.5903 18.9037 29.3636 18 29.3636C17.0963 29.3636 16.3636 28.5903 16.3636 27.6364V10.3636C16.3636 9.40969 17.0963 8.63636 18 8.63636C18.9037 8.63636 19.6364 9.40969 19.6364 10.3636V27.6364ZM26.1818 27.6364C26.1818 28.5903 25.4492 29.3636 24.5455 29.3636C23.6417 29.3636 22.9091 28.5903 22.9091 27.6364V20.7273C22.9091 19.7733 23.6417 19 24.5455 19C25.4492 19 26.1818 19.7733 26.1818 20.7273V27.6364Z" fill="white"/>
</svg>
