<svg width="36" height="38" viewBox="0 0 36 38" fill="none" xmlns="http://www.w3.org/2000/svg">
<g opacity="0.8">
<path fill-rule="evenodd" clip-rule="evenodd" d="M18 15.4375C20.4853 15.4375 22.5 13.3109 22.5 10.6875C22.5 8.06415 20.4853 5.9375 18 5.9375C15.5147 5.9375 13.5 8.06415 13.5 10.6875C13.5 13.3109 15.5147 15.4375 18 15.4375ZM18 19C22.3492 19 25.875 15.2784 25.875 10.6875C25.875 6.09663 22.3492 2.375 18 2.375C13.6507 2.375 10.125 6.09663 10.125 10.6875C10.125 15.2784 13.6507 19 18 19Z" fill="white"/>
<path fill-rule="evenodd" clip-rule="evenodd" d="M10.4351 26.7868C8.6862 27.9022 7.875 29.3213 7.875 30.875L7.875 31.4687C7.875 31.7967 8.12684 32.0625 8.4375 32.0625H27.5625C27.8724 32.0625 28.125 31.7966 28.125 31.468V30.875C28.125 29.3213 27.3138 27.9022 25.5649 26.7868C23.789 25.6543 21.1614 24.9375 18 24.9375C14.8386 24.9375 12.211 25.6543 10.4351 26.7868ZM8.68986 23.7376C11.1327 22.1797 14.4113 21.375 18 21.375C21.5887 21.375 24.8673 22.1797 27.3101 23.7376C29.7799 25.3127 31.5 27.7529 31.5 30.875V31.468C31.5 33.7626 29.7378 35.625 27.5625 35.625H8.4375C6.26287 35.625 4.49999 33.7642 4.5 31.4687L4.5 30.875C4.5 27.7529 6.22005 25.3127 8.68986 23.7376Z" fill="white"/>
</g>
</svg>
