<svg width="21" height="21" viewBox="0 0 21 21" fill="none" xmlns="http://www.w3.org/2000/svg">
<path fill-rule="evenodd" clip-rule="evenodd" d="M9.40625 3.0625C5.90269 3.0625 3.0625 5.90269 3.0625 9.40625C3.0625 12.9098 5.90269 15.75 9.40625 15.75C10.8742 15.75 12.2257 15.2514 13.3006 14.4143L17.0306 18.1443C17.3382 18.4519 17.8368 18.4519 18.1443 18.1443C18.4519 17.8368 18.4519 17.3382 18.1443 17.0307L14.4143 13.3006C15.2514 12.2257 15.75 10.8742 15.75 9.40625C15.75 5.90269 12.9098 3.0625 9.40625 3.0625ZM9.40625 4.6375C6.77254 4.6375 4.6375 6.77254 4.6375 9.40625C4.6375 12.04 6.77254 14.175 9.40625 14.175C12.04 14.175 14.175 12.04 14.175 9.40625C14.175 6.77254 12.04 4.6375 9.40625 4.6375Z" fill="white"/>
</svg>
