<svg width="24" height="23" viewBox="0 0 24 23" fill="none" xmlns="http://www.w3.org/2000/svg">
<g filter="url(#filter0_dddddddd_2749_1654)">
<path d="M11.5846 16.746L18.5 20.5C18.5462 20.5282 17.3763 20.2585 17.429 20.2459C17.5391 20.2197 17.6071 20.1091 17.5809 19.999L7 18L5 14.2377L21.5 8.5C21.5411 8.46476 21.1641 9.09058 21.1685 9.03659C21.1775 8.92373 21.0934 8.82491 20.9805 8.81586L11.3374 16.9331L11.7739 2.12685C11.7531 2.07684 11.7133 2.03709 11.6633 2.01629C11.5588 1.97282 12.0435 1.39546 12 1.5L18.5 20.5L1.5 9C1.44601 9.00433 2.08459 8.84571 2.04935 8.88684C1.9757 8.97283 1.98569 9.10224 2.07168 9.1759L16 13.5L9.5 19C9.48743 19.0527 10.4718 16.8869 10.5 16.9331C10.559 17.0297 11.2408 16.9921 11.3374 16.9331L11.5846 16.746ZM11.5846 19.0896L6.93707 21.9283C5.89781 22.563 4.54073 22.2351 3.90595 21.1959C3.60229 20.6987 3.50771 20.1016 3.64288 19.5349L4.90647 14.2377L0.770563 10.6948C-0.154295 9.90257 -0.261804 8.51059 0.530436 7.58573C0.909433 7.14329 1.44812 6.86882 2.02883 6.82226L7.45728 6.38706L9.54866 1.35879C10.0163 0.23438 11.307 -0.298013 12.4314 0.169654C12.9693 0.393381 13.3968 0.820886 13.6205 1.35879L15.7119 6.38706L21.1403 6.82226C22.3542 6.91958 23.2594 7.98252 23.1621 9.19642C23.1155 9.77713 22.841 10.3158 22.3986 10.6948L18.2627 14.2377L19.5263 19.5349C19.8088 20.7195 19.0776 21.9088 17.8931 22.1913C17.3264 22.3265 16.7293 22.2319 16.2321 21.9283L11.5846 19.0896Z" fill="url(#paint0_angular_2749_1654)"/>
</g>
<defs>
<filter id="filter0_dddddddd_2749_1654" x="0" y="0" width="23.1694" height="22.252" filterUnits="userSpaceOnUse" color-interpolation-filters="sRGB">
<feFlood flood-opacity="0" result="BackgroundImageFix"/>
<feColorMatrix in="SourceAlpha" type="matrix" values="0 0 0 0 0 0 0 0 0 0 0 0 0 0 0 0 0 0 127 0" result="hardAlpha"/>
<feOffset/>
<feComposite in2="hardAlpha" operator="out"/>
<feColorMatrix type="matrix" values="0 0 0 0 1 0 0 0 0 1 0 0 0 0 1 0 0 0 1 0"/>
<feBlend mode="normal" in2="BackgroundImageFix" result="effect1_dropShadow_2749_1654"/>
<feColorMatrix in="SourceAlpha" type="matrix" values="0 0 0 0 0 0 0 0 0 0 0 0 0 0 0 0 0 0 127 0" result="hardAlpha"/>
<feOffset/>
<feComposite in2="hardAlpha" operator="out"/>
<feColorMatrix type="matrix" values="0 0 0 0 1 0 0 0 0 1 0 0 0 0 1 0 0 0 1 0"/>
<feBlend mode="normal" in2="effect1_dropShadow_2749_1654" result="effect2_dropShadow_2749_1654"/>
<feColorMatrix in="SourceAlpha" type="matrix" values="0 0 0 0 0 0 0 0 0 0 0 0 0 0 0 0 0 0 127 0" result="hardAlpha"/>
<feOffset/>
<feComposite in2="hardAlpha" operator="out"/>
<feColorMatrix type="matrix" values="0 0 0 0 1 0 0 0 0 1 0 0 0 0 1 0 0 0 1 0"/>
<feBlend mode="normal" in2="effect2_dropShadow_2749_1654" result="effect3_dropShadow_2749_1654"/>
<feColorMatrix in="SourceAlpha" type="matrix" values="0 0 0 0 0 0 0 0 0 0 0 0 0 0 0 0 0 0 127 0" result="hardAlpha"/>
<feOffset/>
<feComposite in2="hardAlpha" operator="out"/>
<feColorMatrix type="matrix" values="0 0 0 0 1 0 0 0 0 1 0 0 0 0 1 0 0 0 1 0"/>
<feBlend mode="normal" in2="effect3_dropShadow_2749_1654" result="effect4_dropShadow_2749_1654"/>
<feColorMatrix in="SourceAlpha" type="matrix" values="0 0 0 0 0 0 0 0 0 0 0 0 0 0 0 0 0 0 127 0" result="hardAlpha"/>
<feOffset/>
<feComposite in2="hardAlpha" operator="out"/>
<feColorMatrix type="matrix" values="0 0 0 0 1 0 0 0 0 1 0 0 0 0 1 0 0 0 1 0"/>
<feBlend mode="normal" in2="effect4_dropShadow_2749_1654" result="effect5_dropShadow_2749_1654"/>
<feColorMatrix in="SourceAlpha" type="matrix" values="0 0 0 0 0 0 0 0 0 0 0 0 0 0 0 0 0 0 127 0" result="hardAlpha"/>
<feOffset/>
<feComposite in2="hardAlpha" operator="out"/>
<feColorMatrix type="matrix" values="0 0 0 0 1 0 0 0 0 1 0 0 0 0 1 0 0 0 1 0"/>
<feBlend mode="normal" in2="effect5_dropShadow_2749_1654" result="effect6_dropShadow_2749_1654"/>
<feColorMatrix in="SourceAlpha" type="matrix" values="0 0 0 0 0 0 0 0 0 0 0 0 0 0 0 0 0 0 127 0" result="hardAlpha"/>
<feOffset/>
<feComposite in2="hardAlpha" operator="out"/>
<feColorMatrix type="matrix" values="0 0 0 0 1 0 0 0 0 1 0 0 0 0 1 0 0 0 1 0"/>
<feBlend mode="normal" in2="effect6_dropShadow_2749_1654" result="effect7_dropShadow_2749_1654"/>
<feColorMatrix in="SourceAlpha" type="matrix" values="0 0 0 0 0 0 0 0 0 0 0 0 0 0 0 0 0 0 127 0" result="hardAlpha"/>
<feOffset/>
<feComposite in2="hardAlpha" operator="out"/>
<feColorMatrix type="matrix" values="0 0 0 0 1 0 0 0 0 1 0 0 0 0 1 0 0 0 1 0"/>
<feBlend mode="normal" in2="effect7_dropShadow_2749_1654" result="effect8_dropShadow_2749_1654"/>
<feBlend mode="normal" in="SourceGraphic" in2="effect8_dropShadow_2749_1654" result="shape"/>
</filter>
<radialGradient id="paint0_angular_2749_1654" cx="0" cy="0" r="1" gradientUnits="userSpaceOnUse" gradientTransform="translate(11.5846 11.1259) scale(11.5846 11.1259)">
<stop stop-color="#B6D0F7"/>
<stop offset="0.15" stop-color="#EEF4E1"/>
<stop offset="0.3" stop-color="#FAFCFE"/>
<stop offset="0.45" stop-color="#E2C1F9"/>
<stop offset="0.58" stop-color="#BFD1F9"/>
<stop offset="0.75" stop-color="#FAFCFE"/>
<stop offset="0.85" stop-color="#BAE4E2"/>
<stop offset="1" stop-color="#B6D0F7"/>
</radialGradient>
</defs>
</svg>
